EMG
version=1
nRows=34
nColumns=17
inDegrees=no
endheader
time	EMG01_right_gast_med	EMG02_right_glut_max	EMG03_left_gast_med	EMG04_left_glut_max	EMG05_right_glut_med	EMG06_right_bic_fem	EMG07_right_rect_fem	EMG08_right_vast_lat	EMG09_right_vast_med	EMG10_right_tens_fasc_lat	EMG11_left_glut_med	EMG12_left_bic_fem	EMG13_left_rect_fem	EMG14_left_vast_lat	EMG15_left_vast_med	EMG16_left_tens_fasc_lat
      1.26000000	    -30.39616394	    -76.17319489	   -166.66279602	    -74.15419006	     -2.60387993	    -57.80387878	      0.87186217	    -18.88174057	    -41.20471191	    -24.23097229	     -5.07677412	     16.09299469	     -1.48205853	     -1.41647089	     55.35943222	     23.85780716
      1.27000000	     -8.95210266	    -64.59935760	     79.98127747	    -79.57862854	   -134.88200378	     -3.45240116	    -11.63660145	     -6.30347872	      1.62601161	    -39.42949677	     10.11255550	    -27.44650078	     -1.74162245	     -3.52163577	     24.57589912	     60.11365509
      1.28000000	      0.93929672	     41.31981659	    246.97958374	    -74.19517517	   -260.52239990	      8.83034325	      1.55757809	    -33.91874695	    -38.50047684	    -50.19374466	     -2.70216823	     -2.60243154	    -13.46485424	    -26.95827866	    -21.47598457	     28.79958534
      1.29000000	      9.75326347	     93.37883759	    141.39724731	    -72.95684814	   -365.90060425	    -42.42647552	    -28.22569275	     -5.81638527	    -13.32662201	     32.59207153	     -1.96281028	      4.67837620	    -21.69170761	    -10.48428345	     -3.14524174	     10.96236515
      1.30000000	     10.61450005	     39.09517670	     10.15276051	    -58.20758820	   -355.64093018	    -31.01392365	    -18.89380646	     40.30367279	    -36.78951645	    108.25126648	     -3.50016785	      6.40109158	    -30.57671547	      1.47210121	     20.60748291	     -2.82880831
      1.31000000	     28.85361099	     98.48411560	    130.43612671	    -43.04523087	   -372.58459473	    -72.41245270	    -21.94263458	      8.73182297	    -33.68441772	    133.44139099	     -7.77772188	      2.20408154	     -6.54077053	     16.41518784	     29.37707329	     -5.43484020
      1.32000000	     27.87264824	    110.47668457	    -30.64788818	    -14.20351887	   -177.54577637	    109.28254700	    -32.97908783	     -7.60498524	     85.90518951	    120.33554840	     -5.46484137	     -0.86743915	      2.48928523	     -4.21058369	      6.62694836	    -16.64091873
      1.33000000	     12.67038536	     76.14534760	     -4.65526390	     23.93370056	     11.21355820	     -9.62896252	    -10.29894829	    -14.52481270	    224.82952881	     81.43780518	      5.17948055	      1.77357316	      0.47058868	     -0.40905154	    -15.81519413	    -23.78574753
      1.34000000	     35.77442551	      4.69340134	    -24.16987801	     53.47595215	    -83.44502258	    -52.01987457	     -1.37211943	     38.80299759	     26.72845078	      9.60084438	      2.59953356	     -8.09651566	      4.84448481	     -4.35665178	    -44.29160690	    -53.72353363
      1.35000000	    -43.95166779	    -44.54646301	    -58.37546539	     64.73572540	    433.68667603	    475.15240479	    -10.46273613	    -45.14374542	     62.00798798	    -65.25720215	    -14.90478516	     -8.43140030	      1.59649789	     -1.15152073	    -57.81964111	    -74.20538330
      1.36000000	    -33.31048584	   -115.75709534	     -7.34205246	     36.20418930	    489.74490356	     28.55337524	     20.71006775	    106.31394196	   -189.23516846	    -94.46457672	    -17.56632233	     -4.50938463	      9.12497330	      3.44586873	    -26.82617950	    -96.30346680
      1.37000000	    -79.98276520	   -142.68264771	     43.11182785	     15.99277973	   -171.39102173	   -174.29696655	     21.45867538	   -101.45880127	    -75.35899353	   -228.68496704	    -10.32303524	     -8.54513264	     18.77046585	     -4.98226833	    -13.78750610	    -78.81790924
      1.38000000	     15.22596931	    -96.01439667	    -22.85272789	     -2.31834698	   -454.05661011	    -67.71983337	     12.80124855	    -13.81039143	     -6.29102564	   -296.72598267	     -6.37860012	      0.27946019	      2.82781410	     -2.07288241	    -10.09886932	    -26.40636063
      1.39000000	     93.93041992	    -66.25454712	    -15.43633366	    -14.14059734	   -390.16149902	    -99.08963776	     14.71790886	    -21.17072296	    -39.92842484	     -6.49857664	     -6.36832619	     -0.00703859	      4.38538933	    -11.60621452	      1.26987076	    -14.36619759
      1.40000000	     27.78732681	    121.89996338	     -4.12547684	    -22.18674469	   -128.43664551	    114.67510986	     42.94035339	     -1.73236489	   -302.83804321	    148.46716309	    -10.41876888	      2.36535287	     10.46232414	     -8.21286678	     32.21525192	     -3.37243295
      1.41000000	     -7.50720930	    236.55258179	    -12.45242786	    -39.68013382	     20.55217934	    106.03382874	      1.83724773	     28.31764412	    -81.18463135	      6.43865967	     -3.42794514	     -7.38747168	      0.62563592	      2.10282731	     25.96557236	     13.43070984
      1.42000000	    -33.20878220	    238.27388000	    -10.74937248	    -36.44094467	   -261.75799561	    -30.61294746	    -34.76912308	     36.74459457	    111.61441803	   -136.83732605	    -11.55732441	    -11.21727562	      2.11385155	      5.24062920	      8.23167229	     -7.03929138
      1.43000000	    -59.84990311	    111.56131744	     -0.65752220	    -29.63672638	    -41.27332306	    193.62933350	    -25.20944595	     34.16380310	    347.71942139	   -120.47921753	     -9.16520309	      1.58521843	      8.49993896	     15.29016399	     22.42297935	    -22.95741463
      1.44000000	    -33.95253372	    -82.41091919	     -0.70534229	    -13.56535912	    246.56343079	     -8.67366600	    -21.85363770	     51.02449036	     36.18980408	     24.63551521	      3.11187410	     -3.71264648	     -0.76305056	     23.74578285	     50.51902008	     -4.12980080
      1.45000000	     23.17844582	   -189.52589417	     -7.41512728	     16.34087563	    365.88018799	    -71.69712067	    -27.08942604	     79.43644714	     85.88278198	    110.38100433	     15.62082863	     -0.68432212	      0.86561775	     24.88596535	     53.94674301	    -18.13401222
      1.46000000	     37.66326904	   -143.97659302	      5.77621841	    -36.02448273	    312.30468750	    -30.20247078	    -22.42355156	      3.26613951	     34.73662949	    103.40118408	      8.37860107	     -4.20531940	    -20.80841255	     31.56052208	     45.80917358	     -8.53729057
      1.47000000	     55.82426453	     -3.12304401	     -2.09854984	    -19.47695160	    216.71096802	    -53.13899994	      5.83558559	    -51.94791794	    -43.91953278	     88.16091156	     15.65272903	    -16.65384102	    -12.18566895	     33.96526718	     78.96543121	    -21.94886780
      1.48000000	     39.73962021	     29.30010986	      2.91193819	    148.22741699	     12.03339767	    -74.06093597	     24.84801483	    -44.04994965	   -193.53875732	     64.80063629	      1.38680363	     -8.76426983	    -10.92427254	    -15.45263100	    102.27394867	    -30.36091805
      1.49000000	     42.55371094	      3.44482422	      6.34094238	    363.17199707	   -103.19702148	    -65.25939941	     34.82971191	    -46.24511719	   -261.30737305	     66.44592285	     21.81457520	    -12.86804199	     -9.32922363	    -56.99218750	      6.18469238	    -69.56970215
      1.50000000	   -103.94444275	    -18.52996445	     -2.64635253	    706.32873535	      8.41960716	    -33.39519501	     24.21327209	    -33.45920944	   -128.05545044	    117.69855499	    -11.68739128	     -5.91266680	      2.79567266	    -43.16270828	    -83.13999176	   -102.36795044
      1.51000000	     -2.52141285	    -47.83259201	     -8.87182617	    723.05798340	    175.53921509	    -44.75922394	     22.19836807	    -39.93975830	     -2.15311837	    204.53053284	      7.67946863	      0.10216022	      1.45251870	    -12.81348038	   -100.14491272	   -164.88095093
      1.52000000	   -413.26770020	    -37.24846268	      2.44134331	    296.21520996	    146.40284729	    -27.18785858	     25.46615410	     -6.14808273	     33.40634155	    110.77934265	      7.98358679	     -1.82029057	      9.79249763	     -5.14907932	   -100.72481537	   -241.30340576
      1.53000000	     -0.40112686	      9.50891876	     -7.60040283	     63.18556976	    124.49600983	    -11.63464737	    -16.51566315	     -7.06024170	    119.10032654	    -42.88617325	      4.47908306	     -4.56372452	     -5.79376221	     -2.59183979	   -119.97016907	   -363.80615234
      1.54000000	     15.85237885	     82.21275330	     -2.61555958	   -128.19201660	     32.91811371	     31.17697525	    -20.77495003	     -3.82098365	    128.91423035	   -224.54847717	     -3.90571690	      3.36715508	     12.01799011	     -5.97886086	    -62.96875763	   -540.94238281
      1.55000000	    157.62934875	    117.93702698	    -14.15744781	   -235.17439270	    -43.27275848	     53.61510849	    -12.88005066	      1.34765124	     86.78513336	   -247.49261475	     -3.90908575	     -4.15952396	     -3.32332277	     -4.60604858	      1.79548788	   -376.75140381
      1.56000000	    -35.80826569	    119.47074890	      9.06345367	   -366.81292725	   -129.07621765	     22.63939857	    -13.92636490	     -3.85795283	     38.06404114	   -119.60223389	     -1.23715568	    -10.76341629	     -7.32090235	    -11.34922218	     29.06812668	     59.98389435
      1.57000000	     92.30941772	     87.26658630	      0.14071035	   -435.04815674	    -20.82266426	      8.88372231	    -18.37381172	     -0.86141729	     28.78390503	     45.28426743	     -6.58849907	     -3.45575261	     11.11734772	     -9.97274780	     31.01010132	    277.12188721
      1.58000000	      9.75869751	      6.96087742	     -2.56358004	   -455.23901367	     35.97173691	     11.72698307	     -7.55709028	     -4.23070574	     16.35960770	     16.17511940	     -6.22696924	      2.59145069	      5.49505520	    -14.65748978	     29.18639946	    327.87637329
      1.59000000	     17.87179947	    -87.84596252	      0.46347094	   -524.71356201	    188.26600647	    -46.72878265	     -2.02751637	     -2.32964039	     26.07856750	     42.23939514	      4.33231544	      1.33057427	      3.65006495	     -8.47897148	     38.30297089	    283.03356934
